<svg xmlns="http://www.w3.org/2000/svg" viewBox="0 0 239.77 57.74"><defs><style>.cls-1{fill:#231f20;}.cls-1,.cls-2,.cls-3,.cls-4,.cls-5{fill-rule:evenodd;}.cls-2{fill:#00abec;}.cls-3{fill:#a9def7;}.cls-4{fill:#00bdf0;}.cls-5{fill:#6dccf3;}</style></defs><title>iconAsset 35</title><g id="Layer_2" data-name="Layer 2"><g id="Layer_1-2" data-name="Layer 1"><path class="cls-1" d="M77.52,18.68c0-.08,0-.13,0-.16v-.25a1,1,0,0,0-1-1H70.8a1,1,0,0,0-1,1c0,1.35,0,4.6,0,8.44V46.51c0,.08,0,.13,0,.16v.25a1,1,0,0,0,1,1h5.73a1,1,0,0,0,1-1c0-1.35,0-4.6,0-8.44Zm37.81-8.84H60a1,1,0,0,0-1,1.1c0,1.21,0,3.38,0,4.42a1,1,0,0,0,1,1.06H78.52s36.17,0,36.8,0a1,1,0,0,0,1-1V10.82A1,1,0,0,0,115.32,9.83Zm0,15.27H96.67a1,1,0,0,1-1-1,8.2,8.2,0,0,1,2.68-5.54c.44-.44.34-1.3-.92-1.3H90.16a.87.87,0,0,0-.72.38C82.13,28.3,87,46.07,105,46.77H115.3a1,1,0,0,0,1-1V41.25a1,1,0,0,0-1-1H104a8.36,8.36,0,0,1-8.33-7.57,1,1,0,0,1,1-1h18.62a1,1,0,0,0,1-1V26.11A1,1,0,0,0,115.3,25.1Zm50.49,15.15H137.63c-17.22-1.81-13.92-23.84.07-23.83h9.06a1,1,0,0,0,1-1V10.84a1,1,0,0,0-1-1h-11c-24,1.75-24.22,34.73-.36,36.92h20.07s9.7,0,10.33,0a1,1,0,0,0,1-1V41.23A1,1,0,0,0,165.79,40.25Z"/><path class="cls-1" d="M170.85,24.73h-8.74a6.24,6.24,0,0,1-3.36-.78,3.85,3.85,0,0,1-1.63-3.52q0-4,4.43-4H180a1,1,0,0,0,1-1v-4.6a1,1,0,0,0-1-1H160.6c-13.66,1-13.66,20.87.1,21.37h8.61a5.61,5.61,0,0,1,3.39,1.14,4.09,4.09,0,0,1,1.62,3.46,3.88,3.88,0,0,1-1.47,3.35,6.75,6.75,0,0,1-4,1.07,1,1,0,0,0-1,1.1c0,1.21,0,3.33,0,4.36a1,1,0,0,0,1,1.06h1.9c.32,0,.62,0,.92,0l.23,0,.83-.08h0c.28,0,.56-.09.83-.14l.21,0,.72-.18.08,0,.75-.25.19-.07.63-.26.09,0c.23-.1.45-.22.66-.34l.17-.09.54-.33.09-.06c.2-.13.39-.27.57-.41l.14-.11.45-.39.09-.08c.17-.15.33-.32.49-.48l.12-.13.38-.43.09-.1.4-.54.09-.14.3-.47.07-.12q.17-.29.32-.58l.07-.14c.08-.17.16-.34.23-.51l0-.09h0C184.24,33.72,180.83,25.12,170.85,24.73ZM227.19,9.86h-2.81c-7.94,0-6.44,0-6.73,0a1,1,0,0,0-1,1l0,4.59a1,1,0,0,0,1,1h9.53a4,4,0,0,1,3.39,1.6,5.87,5.87,0,0,1,1,3.59A6,6,0,0,1,230,26.22a4.33,4.33,0,0,1-3.1.87s-8.92,0-9.21,0a1,1,0,0,0-1,1l0,4.88a1,1,0,0,0,1,1h10.17C244.95,32,242.69,10.21,227.19,9.86Z"/><path class="cls-1" d="M214.14,9.89h-5.79a1,1,0,0,0-1,1V44h0a.34.34,0,0,0,.34.34.35.35,0,0,0,.19-.06c4-2.54,7-7,7.2-13.43V10.87A1,1,0,0,0,214.14,9.89Z"/><path class="cls-1" d="M205,37a.82.82,0,0,0-.59.25c-4.63,3.87-13,1.81-13.57-6.49V10.88a1,1,0,0,0-1-1h-5.71a1,1,0,0,0-1,1V30.77c.41,13.47,12.78,18.42,22,14.87h0a1,1,0,0,0,.65-.95V37.8A.82.82,0,0,0,205,37Z"/><path class="cls-2" d="M27.8.11c5,2.25,14,8.9,14.64,9.3a1,1,0,0,1,.26,1.67c-.14.1-11,10-13.11,11.75a1,1,0,0,1-1.66-.61c0-.43-.23-4.81-.23-4.81a6.77,6.77,0,0,0-6.6,2.41.85.85,0,0,1-1.29.09L13.51,12a.8.8,0,0,1,.13-1.2A23.5,23.5,0,0,1,26.78,5.48L26.35,1A1,1,0,0,1,27.8.11Z"/><path class="cls-3" d="M58,29.31c-2.61,4.82-9.91,13.31-10.35,13.91a1,1,0,0,1-1.69.14c-.09-.15-9.11-11.74-10.75-13.93a1,1,0,0,1,.73-1.62c.43,0,4.82.12,4.82.12a6.77,6.77,0,0,0-1.92-6.76.84.84,0,0,1,0-1.29l8.36-5.69a.8.8,0,0,1,1.19.22,23.49,23.49,0,0,1,4.32,13.5l4.54-.1A1,1,0,0,1,58,29.31Z"/><path class="cls-4" d="M.15,28.45c2.61-4.82,9.91-13.31,10.35-13.92a1,1,0,0,1,1.69-.13c.09.15,9.11,11.74,10.75,13.94A1,1,0,0,1,22.21,30c-.43,0-4.82-.12-4.82-.12a6.77,6.77,0,0,0,1.91,6.76.84.84,0,0,1,0,1.29l-8.36,5.69a.79.79,0,0,1-1.18-.22A23.46,23.46,0,0,1,5.43,29.86L.89,30A1,1,0,0,1,.15,28.45Z"/><path class="cls-5" d="M27.74,57.59C22.92,55,14.43,47.68,13.83,47.24a1,1,0,0,1-.13-1.69c.14-.09,11.74-9.11,13.93-10.75a1,1,0,0,1,1.61.73c0,.43-.12,4.82-.12,4.82a6.78,6.78,0,0,0,6.76-1.91.84.84,0,0,1,1.29,0l5.69,8.36A.8.8,0,0,1,42.65,48a23.51,23.51,0,0,1-13.49,4.33l.1,4.54A1,1,0,0,1,27.74,57.59Z"/></g></g></svg>